<svg width="306" height="38" viewBox="0 0 306 38" fill="none" xmlns="http://www.w3.org/2000/svg">
<g clip-path="url(#clip0_68_547)">
<path d="M2.39653 35.9491C1.97316 36.1009 2.03082 35.8017 1.95085 35.7778C2.6989 35.6199 2.40432 36.0218 2.39653 35.9491Z" fill="#FAFF00"/>
<path d="M9.75099 34.4157L9.58657 34.352L10.7296 34.2921L9.75099 34.4157Z" fill="#FAFF00"/>
<path d="M16.4299 32.4443C15.9444 33.0641 13.985 33.0887 12.8506 33.6061L12.6884 33.765L12.0308 33.5741C13.4942 33.1871 15.4506 32.8637 16.4299 32.4443Z" fill="#FAFF00"/>
<path d="M19.7054 30.54C19.5399 30.7659 20.5348 30.4919 18.8857 30.8166L19.0201 30.7324C19.168 30.6952 19.3685 30.6423 19.7054 30.54Z" fill="#FAFF00"/>
<path d="M19.0201 30.7324C19.4404 30.4663 18.3161 30.9101 19.0201 30.7324V30.7324Z" fill="#FAFF00"/>
<path d="M22.3361 29.9581L21.3523 30.0533C21.515 29.9039 22.3401 29.6589 22.0085 29.6686C22.9951 29.4968 22.8331 29.6589 22.3361 29.9581Z" fill="#FAFF00"/>
<path d="M23.3267 30.0374L22.8197 30.1018C22.891 30.0372 23.0167 29.9886 23.3267 30.0374Z" fill="#FAFF00"/>
<path d="M21.749 30.2402L22.8125 30.1022C22.7009 30.2104 22.7307 30.355 22.3278 30.1812C22.4588 30.2849 22.2155 30.2163 21.749 30.2402Z" fill="#FAFF00"/>
<path d="M21.1868 30.4636C20.6931 30.6958 20.0354 30.9343 21.0226 30.8357C19.2145 31.2523 19.3785 30.877 21.1868 30.4636Z" fill="#FAFF00"/>
<path d="M16.9215 32.7911L16.2692 33.1215L15.6213 33.1591C15.9451 33.1372 16.9164 32.6419 16.9215 32.7911Z" fill="#FAFF00"/>
<path d="M28.1049 28.1795C28.1916 28.2571 27.867 28.5113 27.8356 28.6467L27.1259 28.7261C27.4381 28.568 28.0958 28.3295 28.1049 28.1795Z" fill="#FAFF00"/>
<path d="M27.8284 28.6471L28.9111 28.5334C27.9942 28.7966 27.7818 28.7675 27.8284 28.6471Z" fill="#FAFF00"/>
<path d="M23.6485 30.4767L21.8408 30.5943L23.9758 30.3941L23.6485 30.4767Z" fill="#FAFF00"/>
<path d="M32.0559 27.1424L31.3978 27.0661L32.5488 27.1425L32.0559 27.1424Z" fill="#FAFF00"/>
<path d="M34.7108 26.5495C34.2208 26.4762 35.2207 26.1033 34.7278 26.1033C35.3801 25.9971 36.0431 25.9587 36.7034 25.9886C36.0082 26.0669 35.333 26.2569 34.7108 26.5495Z" fill="#FAFF00"/>
<path d="M37.6873 25.957C37.3596 25.9794 37.031 25.9868 36.7028 25.9791C37.0297 25.9418 37.3596 25.9344 37.6873 25.957Z" fill="#FAFF00"/>
<path d="M30.66 28.0185C30.8374 27.7902 31.0959 27.6215 31.3931 27.5403L31.0571 27.9064L30.66 28.0185Z" fill="#FAFF00"/>
<path d="M31.0537 27.9098C31.4929 27.7857 31.8032 27.7169 31.9331 27.6775C31.8313 27.7089 31.5598 27.7691 31.0537 27.9098Z" fill="#FAFF00"/>
<path d="M30.5582 28.0467L30.6602 28.0185C30.6266 28.0555 30.5988 28.0698 30.5582 28.0467Z" fill="#FAFF00"/>
<path d="M26.2824 29.5192C26.9352 29.5036 28.2499 29.3256 27.0959 29.8728C26.6029 29.8091 27.2634 29.4973 26.2824 29.5192Z" fill="#FAFF00"/>
<path d="M30.1528 28.5091L29.073 28.858C29.0688 28.7851 29.2385 28.6321 28.9174 28.638L30.1528 28.5091Z" fill="#FAFF00"/>
<path d="M30.7136 28.448L30.1493 28.5093L30.5488 28.378L30.7136 28.448Z" fill="#FAFF00"/>
<path d="M35.8741 26.6538C36.4259 26.6302 36.9737 26.5504 37.5068 26.4159C36.8901 26.6203 36.2437 26.8073 35.6199 26.9516C35.4986 26.8918 35.1688 26.8092 35.8741 26.6538Z" fill="#FAFF00"/>
<path d="M33.5322 27.289L33.6426 27.2826C33.5839 27.3178 33.5314 27.3367 33.5322 27.289Z" fill="#FAFF00"/>
<path d="M43.3127 25.0296L43.2312 25.1011C43.2209 25.0862 43.2093 25.072 43.1966 25.0586L43.3127 25.0296Z" fill="#FAFF00"/>
<path d="M35.5165 27.0148C35.1803 27.1419 34.8153 27.1937 34.4537 27.1655C34.8075 27.1069 35.1997 27.0332 35.605 26.9397C35.6609 26.981 35.6767 27.0055 35.5165 27.0148Z" fill="#FAFF00"/>
<path d="M39.3474 25.6953C39.1146 25.8074 38.8462 25.9216 38.5634 26.0334C38.7839 25.8934 39.2411 25.6474 39.3474 25.6953Z" fill="#FAFF00"/>
<path d="M33.7824 27.1695L33.7076 27.1738C33.845 27.08 33.8326 27.1125 33.7824 27.1695Z" fill="#FAFF00"/>
<path d="M33.7825 27.1695C34.0078 27.1563 34.2338 27.1591 34.4581 27.178C34.1882 27.2243 33.9159 27.2581 33.6425 27.2794C33.6929 27.2467 33.7397 27.2099 33.7825 27.1695Z" fill="#FAFF00"/>
<path d="M45.5329 26.3002C45.3805 26.0737 44.0739 26.1463 43.054 26.6666C41.9433 26.7311 42.4126 25.7688 43.2168 25.1019C43.2797 25.2001 43.3067 25.2971 44.4393 25.1805C44.0951 25.404 42.1015 26.0699 43.0837 26.0702C44.5639 25.8507 44.2436 25.6848 44.9131 25.4043C44.3959 25.8477 46.8708 25.4116 46.6799 25.9379C46.2384 25.9635 45.8026 26.0237 45.3661 26.0713C45.3778 26.1502 45.8671 26.1504 45.5329 26.3002Z" fill="#FAFF00"/>
<path d="M41.1541 25.6223L40.6979 25.6997C41.2134 25.5163 41.7044 25.2808 42.1608 24.9978C42.943 24.9365 43.1247 24.9896 43.1966 25.0586L40.9898 25.6223L41.1541 25.6223Z" fill="#FAFF00"/>
<path d="M38.6763 26.1954C39.1048 26.3773 40.2142 26.2303 39.6363 26.6741C38.3105 26.9704 38.647 26.6742 37.8261 26.7473C39.9756 26.3045 37.1725 26.747 38.6677 26.2309C38.2386 26.2844 37.8573 26.3606 37.4971 26.4324C37.8721 26.3089 38.2292 26.1832 38.5467 26.0535L38.5018 26.0815C38.4194 26.1372 38.3959 26.164 38.5041 26.1196L38.5503 26.1169C38.584 26.1515 38.6274 26.1775 38.6761 26.1923C39.2788 25.9919 38.7531 26.1019 38.5503 26.1169C38.5503 26.1169 38.5206 26.0963 38.5127 26.0841L40.6919 25.7223C40.0302 25.9142 39.3573 26.0721 38.6763 26.1954Z" fill="#FAFF00"/>
<path d="M28.3971 30.1376C28.4554 30.096 28.4471 30.0774 28.446 30.0584C28.5922 30.0531 28.6534 30.0623 28.3971 30.1376Z" fill="#FAFF00"/>
<path d="M29.2173 29.7465C28.9416 29.7134 28.66 29.7462 28.4013 29.8416C27.9946 30.0337 28.4443 29.9663 28.446 30.0584C28.1257 30.077 27.3333 30.1484 28.2401 29.7714L28.4003 29.7621C29.2212 29.4442 30.214 28.8268 30.057 28.8295C29.8573 29.1867 29.5702 29.5002 29.2173 29.7465Z" fill="#FAFF00"/>
<path d="M34.0121 27.9863L35.8274 27.6933L34.9887 28.1364L34.9801 27.9874C34.0007 28.2827 34.1701 28.063 34.0121 27.9863Z" fill="#FAFF00"/>
<path d="M43.4774 24.8515L43.1642 24.6247L44.3016 24.775L43.4774 24.8515Z" fill="#FAFF00"/>
<path d="M45.7975 24.332L45.6452 24.1087L46.2998 24.1248L45.7975 24.332Z" fill="#FAFF00"/>
<path d="M179.118 11.8846L179.654 11.9521C179.473 11.9406 179.294 11.9181 179.118 11.8846Z" fill="#FAFF00"/>
<path d="M175.239 12.0047L175.142 11.883C175.324 11.9456 175.391 11.9926 175.239 12.0047Z" fill="#FAFF00"/>
<path d="M103.375 14.2589C104.12 13.9326 104.94 13.4684 104.885 13.7578L104.684 14.0589C104.24 14.0689 103.799 14.1362 103.375 14.2589Z" fill="#FAFF00"/>
<path d="M143.374 11.9798L143.151 12.0786L142.606 11.8463L143.374 11.9798Z" fill="#FAFF00"/>
<path d="M144.006 13.0881L145.021 12.848C144.689 12.9482 144.35 13.0284 144.006 13.0881Z" fill="#FAFF00"/>
<path d="M200.295 12.135L200.911 12.4173C199.935 12.4103 200.367 12.2739 200.295 12.135Z" fill="#FAFF00"/>
<path d="M69.6962 19.5998C70.2248 19.4056 70.7683 19.2465 71.3223 19.1238C70.5542 19.4292 69.957 19.785 69.6962 19.5998Z" fill="#FAFF00"/>
<path d="M177.565 9.00093C177.892 9.04236 178.034 9.09454 178.027 9.15538C177.686 9.11795 177.494 9.07183 177.565 9.00093Z" fill="#FAFF00"/>
<path d="M73.2409 18.7644C73.1296 18.8154 73.0173 18.8506 72.8914 18.896C72.3599 18.9388 71.832 19.0151 71.3117 19.1244C71.9101 18.8551 72.5757 18.7309 73.2409 18.7644Z" fill="#FAFF00"/>
<path d="M276.764 17.0464C276.821 17.0431 276.889 17.0391 276.938 17.0363C276.988 17.0334 276.883 17.0649 276.764 17.0464Z" fill="#FAFF00"/>
<path d="M299.414 17.5644C299.2 17.51 298.846 17.451 298.511 17.391C298.818 17.421 299.121 17.4792 299.414 17.5644Z" fill="#FAFF00"/>
<path d="M55.1296 22.2291C55.043 22.215 54.631 22.3152 55.1296 22.2291V22.2291Z" fill="#FAFF00"/>
<path d="M52.9991 23.7998C53.1095 23.7934 53.2007 23.8262 53.2293 23.8882C53.1998 23.8603 53.1642 23.8381 53.1247 23.8229C53.0851 23.8077 53.0424 23.7998 52.9991 23.7998Z" fill="#FAFF00"/>
<path d="M78.5369 19.6117L78.5796 19.6093C78.4409 19.6809 78.4651 19.6668 78.5369 19.6117Z" fill="#FAFF00"/>
<path d="M54.4174 22.5089C54.6169 22.4272 54.8215 22.3559 55.03 22.2953C54.9324 22.3359 54.7468 22.4008 54.4174 22.5089Z" fill="#FAFF00"/>
<path d="M54.4871 22.3586L54.0618 22.4787C53.9884 22.4447 54.0363 22.407 54.4871 22.3586Z" fill="#FAFF00"/>
<path d="M55.822 22.0967C55.554 22.1488 55.2895 22.2151 55.0299 22.2953C55.1204 22.255 55.1583 22.2306 55.1296 22.2291L55.822 22.0967Z" fill="#FAFF00"/>
<path d="M235.976 12.5014L236.086 12.495C236.583 12.6283 236.36 12.5968 235.976 12.5014Z" fill="#FAFF00"/>
<path d="M118.595 15.5737C118.028 15.3656 117.393 15.3472 116.806 15.5216L117.303 14.6753L118.595 15.5737Z" fill="#FAFF00"/>
<path d="M188.407 11.88L187.137 12.1382C188.663 12.5299 189.769 12.3799 188.579 12.7415C188.407 11.88 183.659 12.7089 183.483 11.8381L182.648 12.0265C182.886 12.0126 182.925 12.0676 183.16 12.054C181.538 12.482 181.953 11.4434 179.857 11.584C179.129 11.6549 178.62 11.7958 179.118 11.8846L177.49 11.715C177.016 11.7425 177.143 11.891 177.606 11.861L175.105 11.8566L175.125 11.8841C174.616 11.7254 174.097 11.594 173.569 11.4908C172.942 11.629 173.889 11.5741 173.727 11.6852L172.349 11.5107C171.795 11.7496 172.938 11.9377 173.885 11.8796C172.619 12.7736 172.742 11.6915 169.979 12.2684L171.276 12.3427C170.452 12.8548 169.436 12.7038 167.981 13.0459C168.328 12.8762 170.893 12.2027 169.4 12.0253C168.807 12.1291 168.197 12.1178 167.612 11.9922C167.631 12.3092 166.827 12.2477 165.843 12.2762L165.923 12.6786C164.848 12.6074 164.936 12.3988 164.305 12.2414C163.121 12.3323 162.9 12.6409 162.62 12.9338C160.729 13.0817 163.909 12.3756 161.664 12.3946C160.094 12.616 158.984 12.4992 157.085 12.3421C155.989 12.5298 157.289 12.5816 156.9 12.7155L155.908 12.4327C155.666 12.4467 155.751 12.5468 155.793 12.5952C154.963 12.5098 155.705 12.1869 154.402 12.1447C154.021 11.7216 151.778 12.9617 150.14 12.551C149.752 12.6912 150.343 12.7905 150.231 12.9528C148.016 12.7633 148.334 12.8275 146.5 12.4887L144.978 12.8505C146.088 12.468 144.619 12.2034 143.332 11.9918C143.722 11.8197 144.056 11.6699 144.284 11.5963L142.243 11.5016C142.004 11.5822 142.219 11.7097 142.563 11.8583C142.423 11.8347 142.289 11.8106 142.184 11.7849C141.482 11.9879 141.85 12.1891 142.401 12.383C142.638 12.2897 142.879 12.1898 143.098 12.0913C143.614 12.3062 144.1 12.5515 144.014 12.7951C143.796 12.7474 143.571 12.7241 143.346 12.7257C143.481 12.7846 143.567 12.8369 143.509 12.8817C143.45 12.9264 143.228 12.8534 142.891 12.768L142.465 13.2475L142.338 13.0768L139.723 13.5656C137.805 13.2634 136.102 12.7261 133.087 12.7769C133.86 13.0502 133.297 13.3055 133.373 13.6954C134.152 13.2145 135.708 13.684 137.253 13.4704C136.445 13.5777 136.641 13.7508 136.851 13.8117L134.053 13.656C134.142 13.9689 133.484 13.9435 132.773 14.1341C133.263 13.4696 130.672 13.8775 129.538 13.7716C129.49 13.9907 129.78 14.187 131.149 14.0248C129.68 14.6221 129.118 13.4334 127.672 13.9912C128.006 13.9718 128.185 13.9137 128.326 14.0073C127.527 13.8978 125.629 14.2369 126.097 14.3751L126.432 14.3557C124.217 14.6496 119.685 15.0302 119.27 14.5295C119.389 14.7946 119.564 15.036 119.786 15.2406L115.597 13.8361C116.004 14.2609 114.797 15.4982 116.673 15.5643C115.924 15.7504 115.149 15.8318 114.376 15.8057C114.727 15.6963 115.188 15.0334 114.689 15.0496C113.4 15.7256 113.783 15.4362 112.177 16.0732C112.703 15.9091 112.008 15.2592 111.158 15.3849C111.303 15.4782 111.179 16.1056 111.502 16.1441L109.283 15.6908C109.83 15.7545 109.457 16.2787 109.011 16.5367C109.212 16.3724 107.178 16.7703 106.603 16.7687L107.48 16.4952C105.099 16.8909 104.967 15.7854 102.589 16.1078C102.899 16.2234 103.432 16.9176 102.239 17.1617C101.634 16.8788 99.5261 15.7671 97.3735 15.787L97.003 16.0502L95.349 16.0444C97.2017 16.6386 99.1072 17.0982 101.047 17.4185C100.178 17.7107 100.835 17.698 99.4946 17.8712C99.0523 18.129 100.27 18.0616 100.664 18.0164L97.5713 18.5807C97.6422 18.1408 95.1198 18.4971 95.1805 18.1278L98.6355 18.0864C98.71 17.6464 96.4891 17.1645 94.2864 17.5531C93.7543 17.8003 94.8336 18.2433 94.8101 18.391C94.5003 18.2849 92.6682 18.4103 92.4794 18.5421L93.4563 18.6349C92.2541 18.9686 91.3544 18.3593 89.9434 18.9723C89.4382 19.0684 88.5193 19.7292 88.3883 19.5014C89.1312 18.8858 89.0337 17.3903 88.4134 17.1019C88.2383 17.1629 85.8188 17.9998 85.2703 18.3338C84.5001 18.8492 86.6926 19.0241 86.0503 19.4653C85.9974 19.3539 85.5077 19.2868 85.3247 19.272C84.8105 19.4577 85.6112 19.5925 84.4441 19.7302C84.1712 19.3358 82.0899 20.153 83.8277 19.4479C82.6672 19.5152 82.637 19.7333 81.3022 19.9347C81.6718 19.5953 79.9234 19.1942 78.7627 19.2583C78.8505 19.355 78.6219 19.54 78.5124 19.6227C76.1908 20.0532 74.9869 20.4188 72.8149 20.8437C72.6374 20.9844 71.6237 21.304 72.1045 21.4034C71.6713 21.3395 71.2281 21.3426 70.7942 21.4126C69.5829 22.0204 72.2921 21.1889 71.4034 21.8162C71.2685 21.5854 69.6165 21.7989 68.6249 21.8215C68.8318 21.3865 70.8042 21.3389 71.7853 21.3201C71.6797 20.7919 69.9051 20.5545 67.5869 20.7367C65.7595 20.9445 66.8829 21.2228 66.5425 21.2044C63.1879 21.9302 63.4527 20.8303 60.7336 21.7354C59.6936 22.2792 60.8406 22.4098 60.6499 22.6944C62.1451 22.5472 62.8491 22.0611 63.8427 21.889L62.6579 22.2758C63.3354 22.2912 64.0121 22.1992 64.6566 22.004C64.224 22.2422 62.8044 22.5217 61.1728 22.8422C59.5788 23.1449 58.0043 23.5283 56.4569 23.9904C55.9704 23.9773 55.1485 24.0313 55.4897 23.8175L56.3216 23.6897C57.0111 23.2617 54.6869 23.6478 55.6918 23.3001C54.5443 23.3444 53.2352 23.3122 51.7236 23.7911L51.5312 24.2316C51.5246 24.1175 52.4843 23.7915 52.9358 23.8162C52.2483 23.7861 50.6947 24.8335 49.8602 24.4876L50.8782 23.996C49.7234 24.0375 48.2491 23.929 46.9051 24.3409C47.4328 23.8333 47.2326 24.3219 48.0949 23.6708C47.3904 24.3955 51.6219 22.9001 50.3966 23.7599C51.2658 23.0416 52.0736 23.176 53.2754 22.467C53.283 22.597 52.8738 22.8084 54.013 22.4974C54.103 22.5254 54.1963 22.5445 54.2913 22.5544L54.3683 22.5277L54.3093 22.5565C54.3627 22.5534 54.3663 22.5532 54.2844 22.558C54.0834 22.6311 53.9002 22.7391 53.7456 22.8755C54.3908 23.0384 56.2321 22.639 56.8797 22.6587C57.55 22.4544 56.557 22.5756 56.8982 22.3618L57.8783 22.3877C57.9039 22.0904 59.5865 21.5412 57.9325 21.7198L59.3817 21.3972C60.2506 21.042 61.1815 20.8264 62.1307 20.7606C62.8055 20.572 63.9405 20.7415 63.2914 20.6361L65.6196 20.3801L65.6154 20.3072C67.8681 19.8585 70.367 19.898 72.842 18.9084C73.7962 18.8355 74.7435 18.6954 75.675 18.4896L75.8765 18.2076C76.8721 18.1308 78.7774 17.4796 79.2487 17.6622C80.1796 16.8385 83.9891 16.7511 85.6936 16.3341L85.8152 16.6451C87.0854 16.4278 88.3708 16.2958 89.6605 16.2503L89.6169 16.5455C90.934 16.5931 92.8643 15.88 94.8852 15.6228C94.7338 15.5362 94.2252 15.6357 93.8747 15.7514C96.1825 14.7747 99.0352 15.4934 101.148 14.722C101.596 14.7434 102.046 14.6815 102.469 14.5404C102.425 14.548 102.379 14.5506 102.334 14.5482L102.557 14.5162C102.792 14.439 103.03 14.3552 103.293 14.2763C103.095 14.3665 102.889 14.4422 102.678 14.5029C103.1 14.4593 103.745 14.4187 104.38 14.4041L104.603 14.0731L104.749 14.0647C105.349 13.8804 105.265 14.1492 104.97 14.4176C105.257 14.423 105.543 14.4512 105.825 14.5016C106.257 13.9517 107.491 14.4686 108.102 13.8638C108.557 14.0696 111.277 13.6796 111.692 14.174C111.688 14.1011 111.884 14.0451 111.547 14.0806C112.204 13.9028 112.889 13.8307 113.571 13.8678L113.818 13.4464L115.409 13.7834C116.303 13.4421 116.676 13.2742 115.724 13.0654C118.006 13.302 117.552 13.0579 119.497 13.3236L119.375 13.0826C120.054 13.0241 121.171 13.2519 121.557 13.0069C122.289 12.691 124.159 12.4902 126.325 12.2628L129.697 11.8986C130.826 11.7759 131.928 11.6293 132.885 11.4433C132.217 12.2391 134.668 10.9678 134.872 11.5253C135.082 11.335 135.617 11.1926 134.975 11.0899C136.976 11.1042 137.939 10.5745 139.35 10.9475C139.563 10.7538 138.905 10.7252 139.101 10.6057C139.263 10.6312 139.743 10.7084 139.943 10.5855C140.143 10.4626 139.639 10.4631 139.319 10.4118C141.354 10.2778 141.598 10.8011 141.784 11.2929C142.795 10.983 143.313 10.9911 144.08 11.2774C144.426 11.0887 145.014 10.8797 143.747 10.8959C144.457 10.8293 148.072 10.3906 148.166 10.7891C148.553 10.6969 148.956 10.6789 149.349 10.7363C150.942 10.6121 151.079 10.5692 152.647 10.5101L152.216 10.605C152.86 11.0542 153.522 10.631 154.785 10.615L154.747 10.5663C157.626 10.0813 156.003 10.6843 158.841 10.1571L158.703 10.4831C158.994 11.1278 161.213 9.98765 162.885 10.1674L162.293 10.3671C163.204 10.5528 164.792 9.36659 165.699 9.24716C165.896 9.18171 165.384 9.17003 165.104 9.13859C167.476 8.65114 165.426 9.52063 167.202 9.54163C167.525 9.31935 166.768 9.00708 167.96 8.93473C168.556 8.74747 171.446 9.54355 173.069 9.08996C172.722 9.26593 172.376 9.44824 173.185 9.54442C174.451 9.56958 176.597 8.82805 177.744 9.3213C177.905 9.27059 177.963 9.22588 177.972 9.18405C178.938 9.28066 181.111 9.36768 181.695 9.63915C182.587 8.57918 187.697 10.0956 187.68 9.12657L190.653 9.15129L190.576 9.05081C192.48 8.99759 193.146 9.21973 193.815 9.47357C194.254 9.40992 193.934 9.31715 193.899 9.26512C196.678 9.08799 196.956 9.13232 199.278 9.63053L199.531 9.31688C199.844 9.41323 200.848 9.2914 202.118 9.205C203.502 9.09429 204.894 9.12666 206.266 9.30146C206.243 9.26466 206.189 9.20415 205.972 9.15314C209.016 9.59359 213.352 8.42924 214.412 9.63996L216.415 9.99449C213.8 9.98716 216.773 10.508 215.69 10.6726C216.71 10.7788 218.361 10.4254 217.098 10.3206L216.897 10.3704C216.469 9.75917 220.153 10.277 220.107 9.86613C222.677 9.95877 225.213 10.0237 227.716 10.0609C230.219 10.1128 232.681 10.1259 235.082 10.2696L234.485 10.6986L236.165 10.7793C236.614 10.6992 236.789 10.4537 235.589 10.396C236.244 10.1736 237.574 10.7453 237.598 10.8488C239.957 10.8138 236.739 10.2626 237.454 10.2847L238.428 10.384L238.202 10.4226C238.973 10.6641 239.024 10.8679 240.463 10.9275C241.383 10.8932 240.959 10.6729 241.317 10.6776C241.315 10.6459 241.443 10.6385 241.868 10.6997L243.983 10.8219L243.1 11.1212C244.015 11.3862 245.083 11.2543 244.067 11.5931C245.565 11.0705 251.946 11.9629 252.851 11.8691C254.123 12.2533 255.412 12.3566 257.015 12.4799C256.607 12.5195 256.326 12.9079 257.698 12.981C257.504 12.5342 258.145 12.5002 258.989 12.5149C259.833 12.5295 260.866 12.6095 261.481 12.3703C260.427 12.6732 265.378 12.8726 263.738 13.2858C264.894 13.3332 263.851 12.9612 264.753 12.8643C265.452 13.0181 266.164 13.1278 266.882 13.1924C267.627 13.2764 268.405 13.3299 269.204 13.3758C270.799 13.4772 272.483 13.5577 274.158 13.8103C274.194 13.9291 273.599 14.0272 274.296 14.2826L276.167 13.9515C276.821 14.0916 276.669 14.6697 277.948 14.4365C277.763 14.5076 277.48 14.6163 277.921 14.7084C284.618 15.0101 291.268 16.9747 298.144 17.0974C297.193 17.1525 297.797 17.2797 298.475 17.3962C298.017 17.3719 298.423 17.6696 298.302 17.8006C299.26 17.815 300.22 17.8516 301.164 17.8795C301.571 18.3743 304.137 18.4545 304.328 18.9077L303.467 18.6682C304.514 19.3517 301.577 19.3949 301.603 20.0231C300.426 19.2581 297.991 20.1913 296.022 19.0747C295.524 19.1036 296.395 19.3361 296.1 19.4327C295.616 19.0824 294.97 18.9194 293.73 18.8451L293.853 18.9302C290.45 18.3198 288.923 18.3606 285.043 17.9687L285.385 17.7135C284.912 17.6644 284.432 17.6698 283.958 17.7295C283.092 17.1437 286.289 18.0236 285.518 17.4068C284.301 17.8654 279.67 16.6011 278.799 17.2114C277.522 17.0533 279.235 16.9126 277.958 16.7577L277.584 16.9002L277.304 16.6207C276.46 16.5519 275.996 16.7347 275.937 16.8876C276.203 16.9247 276.466 16.9774 276.725 17.0455C275.601 17.1297 273.676 16.5862 273.292 16.6085L274.598 16.6441C272.869 16.3341 270.926 16.1479 269.001 15.9128C268.041 15.8 267.084 15.6742 266.158 15.5434C265.233 15.4127 264.356 15.2663 263.51 15.0832L263.789 14.9685C261.24 14.442 261.696 14.9118 258.876 14.4997L258.975 14.5448C258.307 14.3289 257.606 14.1983 256.895 14.1566C257.59 14.3866 255.503 14.3582 256.422 14.6261C253.651 14.0903 255.062 14.2788 253.276 13.5873L252.819 13.7824C252.213 13.4995 252.175 13.3936 250.761 13.2085C251.9 13.5113 249.812 13.4861 251.085 13.8671C248.043 14.139 246.716 13.001 245.264 13.645C243.963 12.8872 247.884 13.493 247.133 13.2853C247.798 13.1227 246.057 12.7117 245.113 12.7028C244.17 12.6939 243.4 13.397 241.004 13.2243C241.244 13.2358 241.254 13.2861 241.494 13.2976C240.579 13.4079 239.756 12.9595 238.628 13.1458C238.049 12.7119 237.195 13.0763 237.065 12.5622L239.259 12.823C238.021 12.6085 236.908 11.9479 234.824 12.1007C235.191 12.2713 235.581 12.4004 235.985 12.4849C235.37 12.5937 234.836 12.313 234.196 12.4233C234.329 12.9372 236.863 12.7044 238.169 13.1756C237.503 13.3446 235.677 12.6491 236.297 13.2333C235.396 12.4841 233.925 13.1642 232.349 12.54L232.428 12.8535C232.025 12.7306 231.607 12.6482 231.182 12.6077L232.003 13.0403C230.716 12.6411 229.445 13.2047 228.198 12.9589C230.839 13.1015 228.818 12.6272 229.955 12.4626C226.725 11.893 228.017 13.1539 224.379 12.8242C224.869 12.8912 226.249 12.738 225.485 12.5597C224.792 12.5678 224.1 12.6452 223.424 12.7906C221.01 12.6126 223.817 12.4943 222.8 12.2638C221.948 12.6027 221.621 12.0714 220.566 11.9164L220.54 12.22C217.767 12.3173 219.848 11.5573 217.346 11.7024L218.373 12.1645L217.081 12.0072L217.331 12.3649C215.938 12.0576 215.494 12.1056 214.104 12.1545C214.449 11.95 213.953 11.5907 212.732 11.5375C211.888 11.6978 213.185 11.8293 211.452 11.7549C211.669 11.9076 211.929 12.0058 212.204 12.0396C212.48 12.0733 212.761 12.0414 213.02 11.947C213.091 12.0479 213.389 12.1514 213.467 12.255C212.562 12.422 211.209 12.2429 210.583 12.222C210.811 12.2252 211.04 12.2066 211.265 12.1665L208.772 11.675C208.371 11.781 208.68 11.8807 208.986 11.9807C208.48 11.9369 208.132 11.7885 207.387 11.7554C207.57 12.0087 207.513 12.2665 208.565 12.4059L206.185 12.0764C206.019 12.1814 204.943 12.3488 205.252 12.4485C203.92 12.5735 202.005 11.88 200.23 12.0751C200.028 11.9943 199.81 11.9487 199.587 11.9407C197.929 11.986 196.46 12.2811 194.503 11.9176L193.386 12.3577C191.85 12.2464 194.9 11.8055 192.346 11.6197C190.551 11.463 191.654 11.997 191.028 12.116C190.133 11.888 188.568 11.454 186.901 11.8306C187.401 11.8697 187.904 11.8862 188.407 11.88ZM169.461 12.025C169.821 12.0804 170.564 12.2599 170.828 12.0729C170.404 11.7222 170.082 11.8935 169.46 12.0154L169.461 12.025ZM140.631 12.7751C141.025 12.8281 141.431 12.7735 141.793 12.6186C141.4 12.6187 141.009 12.6682 140.63 12.7656L140.631 12.7751ZM60.6001 21.3424L60.6392 21.3401C61.4194 21.0595 61.1439 21.1741 60.5995 21.3329L60.6001 21.3424ZM58.9595 21.8161C58.7815 21.8264 58.7816 21.7659 58.8427 21.7115C59.1599 21.7294 59.4784 21.6826 59.7742 21.5748C59.6761 21.6695 59.4712 21.7705 58.959 21.8065L58.9595 21.8161ZM241.549 10.8009L241.195 10.8596C241.945 10.9846 241.744 10.8914 241.545 10.7916L241.549 10.8009Z" fill="#FAFF00"/>
<path d="M143.924 12.9562C143.995 12.917 144.046 12.8546 144.067 12.7824C144.216 12.8247 144.223 12.8816 143.924 12.9562Z" fill="#FAFF00"/>
<path d="M200.181 12.0812L200.238 12.0779C200.263 12.0911 200.283 12.1111 200.295 12.135L200.181 12.0812Z" fill="#FAFF00"/>
<path d="M85.457 19.7033C85.6833 19.6453 85.8986 19.5567 86.0954 19.4404C86.1279 19.5085 85.9794 19.5966 85.457 19.7033Z" fill="#FAFF00"/>
<path d="M49.9881 23.1793L51.0759 23.0303C50.7483 23.0856 50.4321 23.1877 50.1398 23.3327C50.1461 23.256 50.3128 23.1128 49.9881 23.1793Z" fill="#FAFF00"/>
<path d="M41.2579 27.1048C41.0941 27.1143 40.9266 27.1813 40.7658 27.181L40.7572 27.0321C41.4237 26.8853 41.9131 26.8855 41.2579 27.1048Z" fill="#FAFF00"/>
<path d="M49.2539 24.3764C49.2373 24.6445 48.5585 24.703 47.7864 24.8146C47.8291 24.8121 47.8753 24.8094 47.917 24.7879C47.6029 24.4849 48.432 24.4305 49.2539 24.3764Z" fill="#FAFF00"/>
<path d="M47.6094 24.8439C47.371 24.878 47.1352 24.9257 46.9033 24.9867C46.7925 24.8627 47.2017 24.8962 47.6094 24.8439Z" fill="#FAFF00"/>
<path d="M56.8003 22.0908C56.4513 22.2319 56.4986 21.8157 56.325 21.9625C55.8505 21.7261 58.7864 21.8484 56.8003 22.0908Z" fill="#FAFF00"/>
<path d="M48.8663 25.3308L49.0522 24.9638L49.5367 25.1265L48.8663 25.3308Z" fill="#FAFF00"/>
<path d="M54.7024 23.8536L53.5327 24.1918C53.5294 24.1348 53.3795 24.1371 53.1734 24.1554C53.9173 23.9882 54.7074 23.7547 54.7024 23.8536Z" fill="#FAFF00"/>
<path d="M53.1877 24.1546C52.8692 24.2385 52.5414 24.2895 52.2108 24.3067C52.5332 24.2398 52.8594 24.189 53.1877 24.1546Z" fill="#FAFF00"/>
<path d="M50.5197 25.079L50.858 24.9385L51.6929 24.7375L50.5197 25.079Z" fill="#FAFF00"/>
<path d="M67.5588 21.2377L68.8856 21.0812C69.0438 21.1611 68.7016 21.2954 68.1865 21.3444C67.8744 21.3212 67.3813 21.3784 67.5588 21.2377Z" fill="#FAFF00"/>
<path d="M63.7938 22.8301C63.9973 22.7543 64.177 22.6345 64.3165 22.4817L64.4421 22.8624L63.7938 22.8301Z" fill="#FAFF00"/>
<path d="M67.6257 22.207C67.7804 22.2871 69.5908 22.1566 67.9288 22.4439C67.7705 22.364 66.4438 22.5205 67.6257 22.207Z" fill="#FAFF00"/>
<path d="M87.2903 18.3056L86.9575 18.3567L86.8878 17.7088L87.2903 18.3056Z" fill="#FAFF00"/>
<path d="M105.045 17.3806C103.504 17.7213 104.618 17.0301 103.231 17.3904C102.839 17.2828 104.364 17.0957 103.966 17.0106C104.937 17.0561 105.418 16.9169 105.045 17.3806Z" fill="#FAFF00"/>
<path d="M103.966 17.0011C103.813 17.01 103.647 16.9815 103.471 16.9599C103.637 16.9604 103.803 16.9742 103.966 17.0011Z" fill="#FAFF00"/>
<path d="M303.158 17.8879L304.189 17.9425L303.491 18.0339L303.158 17.8879Z" fill="#FAFF00"/>
<path d="M304.956 18.725L305.293 18.3683L305.8 18.8542C305.534 18.754 305.246 18.7098 304.956 18.725Z" fill="#FAFF00"/>
<path d="M166.667 12.9281L166.586 12.8342C166.74 12.7203 166.978 12.6969 167.452 12.6695C167.189 12.7515 166.929 12.8397 166.667 12.9281Z" fill="#FAFF00"/>
<path d="M180.394 12.2781L180.159 12.2885L180.598 11.91L180.394 12.2781Z" fill="#FAFF00"/>
<path d="M191.921 12.6653C191.451 12.6925 190.902 12.5876 190.428 12.6088C191.454 12.6733 192.059 12.2088 191.921 12.6653Z" fill="#FAFF00"/>
</g>
<defs>
<clipPath id="clip0_68_547">
<rect width="304.326" height="19" fill="white" transform="matrix(-0.998322 0.0579134 0.0579134 0.998322 304.76 0.804871)"/>
</clipPath>
</defs>
</svg>
